<?xml version="1.0" encoding="UTF-8"?>
<svg width="22px" height="22px" viewBox="0 0 22 22" version="1.1" xmlns="http://www.w3.org/2000/svg" xmlns:xlink="http://www.w3.org/1999/xlink">
    <!-- Generator: Sketch 52.6 (67491) - http://www.bohemiancoding.com/sketch -->
    <title>Group 7</title>
    <desc>Created with Sketch.</desc>
    <g id="Page-1" stroke="none" stroke-width="1" fill="none" fill-rule="evenodd">
        <g id="Skilsmässaonline---Inloggad---Bodelningsverktyg-1-Copy-8" transform="translate(-221.000000, -910.000000)" fill="#2D333D">
            <g id="Group-7" transform="translate(221.000000, 910.000000)">
                <path d="M21.8031806,0.393522581 C21.7931161,0.229135484 21.6874387,0.0865548387 21.5347935,0.0270064516 C21.3796323,-0.0291870968 21.2068581,0.00603870968 21.0894387,0.120941935 C17.9015032,3.26945806 15.3241484,4.39668387 12.8323419,5.48700645 C12.7316968,5.53061935 12.6520194,5.6128129 12.6109226,5.71513548 L12.2142129,6.70565161 C12.1538258,6.54545806 12.0884065,6.38694194 12.0187935,6.24687742 C11.9181484,6.04307097 11.6782774,5.95836129 11.4702774,6.04978065 C10.0553742,6.68803871 8.56834194,7.44790968 7.27756774,8.66571613 C7.1962129,8.74287742 7.14840645,8.84855484 7.14505161,8.95926452 C7.13582581,9.32745806 7.20040645,9.65874839 7.32453548,10.0193935 C7.12827742,9.96990968 6.95885806,9.8852 6.81711613,9.76610323 C6.72905161,9.69229677 6.61834194,9.6595871 6.50343871,9.67049032 C6.38937419,9.68139355 6.2862129,9.73926452 6.21576129,9.82900645 C4.75976129,11.6942968 4.05189032,13.8615226 3.71556774,15.3502323 C3.67447097,15.5288774 3.75414839,15.7133935 3.91266452,15.8056516 C4.07118065,15.8962323 4.27079355,15.8769419 4.40666452,15.7528129 C6.46737419,13.8774581 7.89485806,12.7862968 9.1546,11.8242968 C10.8823419,10.5041677 12.514471,9.25784516 15.4558258,6.24939355 C15.6126645,6.09003871 15.8894387,6.08668387 16.0487935,6.24268387 C16.128471,6.32068387 16.1729226,6.42552258 16.1746,6.53790968 C16.1762774,6.64945806 16.1335032,6.75513548 16.0546645,6.83565161 C13.0688581,9.88939355 11.4149226,11.153329 9.66285806,12.491071 C8.30582581,13.5277161 6.77601935,14.701071 4.43014839,16.8750065 C4.42427742,16.8792 4.41672903,16.8808774 4.41169677,16.8859097 C3.12679355,18.0777161 1.72363226,19.4540387 0.119180645,21.0937161 C-0.0426903226,21.2589419 -0.0393354839,21.5248129 0.125890323,21.6866839 C0.208083871,21.7663613 0.31376129,21.8066194 0.41943871,21.8066194 C0.528470968,21.8066194 0.637503226,21.7638452 0.718858065,21.6799742 C1.94924516,20.4219097 3.05885806,19.3232 4.08795484,18.3427484 C4.34376129,18.4006194 4.69266452,18.4517806 5.13550323,18.4517806 C7.08885806,18.4517806 10.3757613,17.5040387 14.9458903,12.9917806 C22.0623419,5.96590968 21.8174387,0.617458065 21.8031806,0.393522581" id="Fill-210"></path>
            </g>
        </g>
    </g>
</svg>