<?xml version="1.0" encoding="UTF-8"?>
<svg width="26px" height="26px" viewBox="0 0 26 26" version="1.1" xmlns="http://www.w3.org/2000/svg" xmlns:xlink="http://www.w3.org/1999/xlink">
    <!-- Generator: Sketch 52.6 (67491) - http://www.bohemiancoding.com/sketch -->
    <title>Group 4</title>
    <desc>Created with Sketch.</desc>
    <g id="Page-1" stroke="none" stroke-width="1" fill="none" fill-rule="evenodd">
        <g id="Skilsmässaonline---Inloggad---Bodelningsverktyg-1-Copy-8" transform="translate(-220.000000, -563.000000)" fill="#2D333D">
            <g id="Group-4" transform="translate(220.000000, 563.000000)">
                <path d="M13.4193548,12.1612903 L24.6991613,12.1612903 C24.8157419,12.1612903 24.9264516,12.1126452 25.0052903,12.0279355 C25.0849677,11.9432258 25.1260645,11.8291613 25.1176774,11.7134194 C24.6916129,5.486 19.6752903,0.469677419 13.447871,0.0436129032 C13.3270968,0.0385806452 13.2180645,0.0763225806 13.1333548,0.156 C13.0486452,0.23483871 13,0.345548387 13,0.462129032 L13,11.7419355 C13,11.9734194 13.187871,12.1612903 13.4193548,12.1612903" id="Fill-696"></path>
                <path d="M24.699329,13 L14.6054581,13 C14.4360387,13 14.2825548,13.1023226 14.2179742,13.2591613 C14.1525548,13.4151613 14.1886194,13.5954839 14.3085548,13.7162581 L21.4484903,20.8545161 C21.5264903,20.9341935 21.6338452,20.9778065 21.7445548,20.9778065 L21.7588129,20.9778065 C21.8753935,20.9736129 21.9844258,20.9216129 22.0607484,20.8343871 C23.8723613,18.7552258 24.9291355,16.2013548 25.1178452,13.447871 C25.1253935,13.332129 25.0851355,13.2180645 25.0054581,13.1333548 C24.9266194,13.0486452 24.8159097,13 24.699329,13" id="Fill-698"></path>
                <path d="M12.2845806,12.877129 C12.2468387,12.8393871 12.2158065,12.7924194 12.1948387,12.7420968 C12.1721935,12.6875806 12.1612903,12.6339032 12.1612903,12.5802258 L12.1612903,0.461709677 C12.1612903,0.345967742 12.1126452,0.235258065 12.0279355,0.155580645 C11.9440645,0.0759032258 11.8316774,0.0398387097 11.7134194,0.0431935484 C5.14548387,0.491903226 0,5.99970968 0,12.5802258 C0,19.5180323 5.64367742,25.160871 12.5806452,25.160871 C15.6083871,25.160871 18.5396774,24.0596452 20.8343871,22.0601613 C20.9216129,21.9838387 20.9736129,21.8756452 20.9778065,21.7590645 C20.982,21.6433226 20.9375484,21.5300968 20.8553548,21.4487419 L12.2845806,12.877129 Z" id="Fill-700"></path>
            </g>
        </g>
    </g>
</svg>