<?xml version="1.0" encoding="UTF-8"?>
<svg width="22px" height="22px" viewBox="0 0 22 22" version="1.1" xmlns="http://www.w3.org/2000/svg" xmlns:xlink="http://www.w3.org/1999/xlink">
    <!-- Generator: Sketch 52.6 (67491) - http://www.bohemiancoding.com/sketch -->
    <title>Group 3</title>
    <desc>Created with Sketch.</desc>
    <g id="Page-1" stroke="none" stroke-width="1" fill="none" fill-rule="evenodd">
        <g id="Skilsmässaonline---Inloggad---Bodelningsverktyg-1-Copy-8" transform="translate(-224.000000, -1084.000000)" fill="#2D333D">
            <g id="Group-3" transform="translate(224.000000, 1084.000000)">
                <path d="M6.51149032,15.9829548 L5.82374839,15.2952129 L6.99374839,12.3706323 L8.02284516,12.3706323 L8.43129677,13.1875355 C8.43549032,13.1959226 8.44555484,13.1984387 8.4505871,13.2059871 C8.4682,13.2378581 8.48329677,13.2705677 8.51013548,13.2965677 C8.53613548,13.3234065 8.56884516,13.3385032 8.59987742,13.3561161 C8.60826452,13.3611484 8.61078065,13.3712129 8.61916774,13.3754065 L9.54174839,13.8366968 L9.86968387,14.4925677 L9.61974839,14.7391484 L6.51149032,15.9829548 Z M8.65774839,11.7642452 C8.58645806,11.6216645 8.44136129,11.5319226 8.28200645,11.5319226 L7.7142,11.5319226 L16.6137484,2.5292129 L17.6487161,3.56418065 L8.92110323,12.2926323 L8.65774839,11.7642452 Z M10.4978774,13.8710839 L10.230329,13.3368258 C10.1892323,13.255471 10.1238129,13.1900516 10.0424581,13.1489548 L9.51407097,12.8856 L18.2416839,4.15714839 L19.2774903,5.19295484 L10.4978774,13.8710839 Z M21.2224581,1.63179355 L20.174071,0.583406452 C19.4217484,-0.169754839 18.1116839,-0.170593548 17.3560065,0.585922581 L6.4142,11.6543742 L6.41252258,11.6560516 L6.41168387,11.6568903 C6.4058129,11.6627613 6.40329677,11.6703097 6.39826452,11.6770194 C6.36807097,11.7114065 6.34039355,11.7491484 6.32194194,11.7927613 C6.32110323,11.7944387 6.32026452,11.7952774 6.31942581,11.7961161 L4.22265161,17.0380516 C4.1605871,17.1932129 4.19749032,17.3710194 4.3165871,17.4901161 C4.39710323,17.5706323 4.50361935,17.6125677 4.61265161,17.6125677 C4.66549032,17.6125677 4.71749032,17.6033419 4.76865161,17.5832129 L10.0105871,15.4864387 C10.0625871,15.465471 10.1095548,15.4344387 10.1498129,15.3950194 L21.2224581,4.44901935 C21.5990387,4.07243871 21.8062,3.57256774 21.8062,3.0399871 C21.8062,2.50824516 21.5990387,2.00837419 21.2224581,1.63179355 L21.2224581,1.63179355 Z" id="Fill-735"></path>
                <path d="M15.6783355,11.4716194 C15.5214968,11.4078774 15.3428516,11.4422645 15.2212387,11.5605226 L10.7400129,15.9914258 C10.6192387,16.1105226 10.4791742,16.2027806 10.3214968,16.2648452 L5.07956129,18.3616194 C4.61743226,18.5478129 4.07394839,18.4337484 3.72336774,18.0831677 C3.36691613,17.7267161 3.25704516,17.1941355 3.44491613,16.7269742 L5.54169032,11.4850387 C5.60375484,11.3273613 5.6960129,11.1872968 5.81427097,11.0673613 L15.5550452,1.21503871 C15.7009806,1.0665871 15.7169161,0.831748387 15.5911097,0.665683871 C15.2690452,0.242974194 14.7834323,-0.000251612903 14.2584,-0.000251612903 L13.0003355,-0.000251612903 C12.7680129,-0.000251612903 12.5809806,0.187619355 12.5809806,0.419103226 L12.5809806,1.16555484 C12.5809806,1.28465161 12.6313032,1.39703871 12.7193677,1.47671613 C12.8996903,1.64026452 13.0003355,1.86084516 13.0003355,2.09652258 C13.0003355,2.55949032 12.6237548,2.93523226 12.1616258,2.93523226 C11.6986581,2.93523226 11.3229161,2.55949032 11.3229161,2.09652258 C11.3229161,1.86084516 11.4227226,1.64026452 11.6038839,1.47671613 C11.6911097,1.39703871 11.742271,1.28465161 11.742271,1.16555484 L11.742271,0.419103226 C11.742271,0.187619355 11.5544,-0.000251612903 11.3229161,-0.000251612903 L8.8067871,-0.000251612903 C8.57446452,-0.000251612903 8.38743226,0.187619355 8.38743226,0.419103226 L8.38743226,1.16555484 C8.38743226,1.28465161 8.43775484,1.39703871 8.52581935,1.47671613 C8.70614194,1.64026452 8.8067871,1.86084516 8.8067871,2.09652258 C8.8067871,2.55949032 8.43020645,2.93523226 7.96807742,2.93523226 C7.50510968,2.93523226 7.12936774,2.55949032 7.12936774,2.09652258 C7.12936774,1.86084516 7.22917419,1.64026452 7.41033548,1.47671613 C7.49756129,1.39703871 7.54872258,1.28465161 7.54872258,1.16555484 L7.54872258,0.419103226 C7.54872258,0.187619355 7.36085161,-0.000251612903 7.12936774,-0.000251612903 L4.61323871,-0.000251612903 C4.38091613,-0.000251612903 4.19388387,0.187619355 4.19388387,0.419103226 L4.19388387,1.16555484 C4.19388387,1.28465161 4.24420645,1.39703871 4.33227097,1.47671613 C4.51259355,1.64026452 4.61323871,1.86084516 4.61323871,2.09652258 C4.61323871,2.55949032 4.23665806,2.93523226 3.77452903,2.93523226 C3.31156129,2.93523226 2.93581935,2.55949032 2.93581935,2.09652258 C2.93581935,1.86084516 3.03562581,1.64026452 3.2167871,1.47671613 C3.3040129,1.39703871 3.35517419,1.28465161 3.35517419,1.16555484 L3.35517419,0.419103226 C3.35517419,0.187619355 3.16730323,-0.000251612903 2.93581935,-0.000251612903 L1.67775484,-0.000251612903 C0.752658065,-0.000251612903 0.000335483871,0.752909677 0.000335483871,1.67716774 L0.000335483871,20.1287806 C0.000335483871,21.0538774 0.752658065,21.8062 1.67775484,21.8062 L14.2584,21.8062 C15.1826581,21.8062 15.9358194,21.0538774 15.9358194,20.1287806 L15.9358194,11.8591032 C15.9358194,11.6905226 15.8343355,11.5370387 15.6783355,11.4716194" id="Fill-737"></path>
            </g>
        </g>
    </g>
</svg>