<?xml version="1.0" encoding="UTF-8"?>
<svg width="22px" height="22px" viewBox="0 0 22 22" version="1.1" xmlns="http://www.w3.org/2000/svg" xmlns:xlink="http://www.w3.org/1999/xlink">
    <!-- Generator: Sketch 52.6 (67491) - http://www.bohemiancoding.com/sketch -->
    <title>Group 6</title>
    <desc>Created with Sketch.</desc>
    <g id="Page-1" stroke="none" stroke-width="1" fill="none" fill-rule="evenodd">
        <g id="Skilsmässaonline---Inloggad---Bodelningsverktyg-1-Copy-8" transform="translate(-222.000000, -736.000000)" fill="#2D333D">
            <g id="Group-6" transform="translate(222.000000, 736.000000)">
                <path d="M11.7030194,15.6197097 C11.4648258,15.8302258 11.1805032,15.9468065 10.9028903,15.9468065 C10.5606968,15.9468065 10.2881161,15.769 10.1128258,15.6138387 L1.09082581,7.99164516 L2.51579355,6.91474194 L2.51579355,7.90274194 C2.51579355,8.02603226 2.57030968,8.14345161 2.66508387,8.22312903 L10.6537935,14.9722258 C10.8995355,15.1886129 11.1083742,15.0259032 11.1477935,14.9906774 L19.1423742,8.22480645 C19.235471,8.14512903 19.2899871,8.02770968 19.2899871,7.90441935 L19.2899871,6.91474194 L20.7157935,7.99164516 L11.7030194,15.6197097 Z M6.70934194,7.13364516 C5.78424516,7.13364516 5.03192258,6.47525806 5.03192258,5.66506452 C5.03192258,4.98319355 5.56869677,4.41287097 6.2899871,4.24848387 L6.2899871,3.77629032 C6.2899871,3.54480645 6.47785806,3.35693548 6.70934194,3.35693548 C6.94166452,3.35693548 7.12869677,3.54480645 7.12869677,3.77629032 L7.12869677,4.19648387 L7.96740645,4.19648387 C8.19972903,4.19648387 8.38676129,4.38435484 8.38676129,4.61583871 C8.38676129,4.84816129 8.19972903,5.03603226 7.96740645,5.03603226 L6.70934194,5.03603226 C6.25476129,5.03603226 5.87063226,5.32370968 5.87063226,5.66506452 C5.87063226,6.00641935 6.25476129,6.29493548 6.70934194,6.29493548 C7.63443871,6.29493548 8.38676129,6.95332258 8.38676129,7.76351613 C8.38676129,8.4453871 7.85082581,9.01570968 7.12869677,9.18009677 L7.12869677,9.65229032 C7.12869677,9.88377419 6.94166452,10.0716452 6.70934194,10.0716452 C6.47785806,10.0716452 6.2899871,9.88377419 6.2899871,9.65229032 L6.2899871,9.23209677 L5.45127742,9.23209677 C5.21979355,9.23209677 5.03192258,9.04422581 5.03192258,8.81274194 C5.03192258,8.58041935 5.21979355,8.39254839 5.45127742,8.39254839 L6.70934194,8.39254839 C7.16392258,8.39254839 7.54805161,8.10487097 7.54805161,7.76351613 C7.54805161,7.42216129 7.16392258,7.13364516 6.70934194,7.13364516 L6.70934194,7.13364516 Z M9.22547097,11.7465484 L12.5803097,11.7415161 L12.5803097,11.7415161 C12.8117935,11.7415161 12.9996645,11.9293871 12.9996645,12.160871 C13.0005032,12.3923548 12.8126323,12.5802258 12.5811484,12.5810645 L9.22630968,12.5852581 L9.22547097,12.5852581 C8.99482581,12.5852581 8.80695484,12.3982258 8.80611613,12.1667419 C8.80611613,11.9344194 8.9939871,11.7465484 9.22547097,11.7465484 L9.22547097,11.7465484 Z M10.1195355,1.16622581 C10.2881161,1.01693548 10.5606968,0.839129032 10.9028903,0.839129032 C11.2459226,0.839129032 11.5185032,1.01693548 11.7122452,1.18719355 L12.3630839,1.67867742 L9.44269677,1.67867742 L10.1195355,1.16622581 Z M16.7738581,8.80687097 C16.7738581,9.03835484 16.5868258,9.22622581 16.3545032,9.22622581 L11.3222452,9.22622581 C11.0907613,9.22622581 10.9028903,9.03835484 10.9028903,8.80687097 C10.9028903,8.57454839 11.0907613,8.38667742 11.3222452,8.38667742 L16.3545032,8.38667742 C16.5868258,8.38667742 16.7738581,8.57454839 16.7738581,8.80687097 L16.7738581,8.80687097 Z M16.3545032,5.03183871 C16.5868258,5.03183871 16.7738581,5.21970968 16.7738581,5.45203226 C16.7738581,5.68351613 16.5868258,5.8713871 16.3545032,5.8713871 L11.3222452,5.8713871 C11.0907613,5.8713871 10.9028903,5.68351613 10.9028903,5.45203226 C10.9028903,5.21970968 11.0907613,5.03183871 11.3222452,5.03183871 L16.3545032,5.03183871 Z M21.8002452,7.95222581 C21.7968903,7.8826129 21.7801161,7.81551613 21.7432129,7.75512903 C21.7365032,7.74506452 21.7272774,7.73919355 21.7205677,7.72996774 C21.6970839,7.69725806 21.6736,7.66454839 21.6400516,7.63854839 L19.2899871,5.863 L19.2899871,3.35693548 C19.2899871,2.431 18.5376645,1.67867742 17.6125677,1.67867742 L13.7545032,1.67867742 L12.2431484,0.538032258 C11.4480516,-0.165645161 10.3325677,-0.144677419 9.58863226,0.517064516 L8.05211613,1.67867742 L4.1932129,1.67867742 C3.26811613,1.67867742 2.51579355,2.431 2.51579355,3.35693548 L2.51579355,5.863 L0.166567742,7.63854839 C0.133019355,7.66454839 0.109535484,7.69725806 0.0852129032,7.72996774 C0.0793419355,7.73919355 0.0692774194,7.74506452 0.0634064516,7.75512903 C0.0265032258,7.81551613 0.00972903226,7.8826129 0.00637419355,7.95222581 C0.00553548387,7.95977419 -0.000335483871,7.96564516 -0.000335483871,7.97319355 L-0.000335483871,20.1277742 C-0.000335483871,21.0537097 0.751987097,21.8060323 1.67708387,21.8060323 L20.1286968,21.8060323 C21.0537935,21.8060323 21.8061161,21.0537097 21.8061161,20.1277742 L21.8061161,7.97319355 C21.8061161,7.96564516 21.8010839,7.95977419 21.8002452,7.95222581 L21.8002452,7.95222581 Z" id="Fill-15"></path>
            </g>
        </g>
    </g>
</svg>