<?xml version="1.0" encoding="UTF-8"?>
<svg width="26px" height="26px" viewBox="0 0 26 26" version="1.1" xmlns="http://www.w3.org/2000/svg" xmlns:xlink="http://www.w3.org/1999/xlink">
    <!-- Generator: Sketch 52.6 (67491) - http://www.bohemiancoding.com/sketch -->
    <title>Group 5</title>
    <desc>Created with Sketch.</desc>
    <g id="Page-1" stroke="none" stroke-width="1" fill="none" fill-rule="evenodd">
        <g id="Skilsmässaonline---Inloggad---Bodelningsverktyg-1-Copy-8" transform="translate(-220.000000, -390.000000)" fill="#2D333D">
            <g id="Group-5" transform="translate(220.000000, 390.000000)">
                <path d="M20.1290323,18.608871 C20.1290323,19.4475806 19.4840645,20.1286129 18.6914839,20.1286129 L6.46980645,20.1286129 C5.67722581,20.1286129 5.03225806,19.4475806 5.03225806,18.608871 L5.03225806,18.0720968 C5.03225806,16.8131935 5.68477419,15.6700323 6.73483871,15.0862903 C8.10612903,14.3264194 10.2330968,13.4197742 12.5806452,13.4197742 C14.9281935,13.4197742 17.0551613,14.3264194 18.4264516,15.0862903 C19.4765161,15.6700323 20.1290323,16.8131935 20.1290323,18.0720968 L20.1290323,18.608871 Z M12.5806452,5.03267742 C14.6614839,5.03267742 16.3548387,6.72519355 16.3548387,8.80603226 C16.3548387,10.8877097 14.6614839,12.5810645 12.5806452,12.5810645 C10.4998065,12.5810645 8.80645161,10.8877097 8.80645161,8.80603226 C8.80645161,6.72519355 10.4998065,5.03267742 12.5806452,5.03267742 L12.5806452,5.03267742 Z M12.5806452,0.000419354839 C5.64367742,0.000419354839 0,5.64409677 0,12.5810645 C0,19.5171935 5.64367742,25.160871 12.5806452,25.160871 C19.5176129,25.160871 25.1612903,19.5171935 25.1612903,12.5810645 C25.1612903,5.64409677 19.5176129,0.000419354839 12.5806452,0.000419354839 L12.5806452,0.000419354839 Z" id="Fill-143"></path>
            </g>
        </g>
    </g>
</svg>