<?xml version="1.0" encoding="UTF-8"?>
<svg width="310px" height="50px" viewBox="0 0 310 50" version="1.1" xmlns="http://www.w3.org/2000/svg" xmlns:xlink="http://www.w3.org/1999/xlink">
    <!-- Generator: Sketch 52.6 (67491) - http://www.bohemiancoding.com/sketch -->
    <title>Page 1</title>
    <desc>Created with Sketch.</desc>
    <defs>
        <polygon id="path-1" points="0 66 317.789 66 317.789 0.052 0 0.052"></polygon>
        <path d="M11.342,0.727 L7.124,4.201 C6.911,4.377 6.8,4.648 6.828,4.923 C6.886,5.485 6.92,6.054 6.92,6.631 C6.92,11.056 5.102,15.32 1.927,18.329 C1.685,18.559 1.604,18.916 1.729,19.229 L1.804,19.422 C2.103,20.184 2.005,21.041 1.544,21.717 C1.346,22.009 1.073,22.256 0.736,22.451 C0.481,22.599 0.325,22.87 0.325,23.163 L0.325,26.094 C0.325,26.55 0.694,26.919 1.15,26.919 L7.744,26.919 C8.199,26.919 8.568,26.55 8.568,26.094 L8.568,15.378 L15.165,15.378 L15.165,26.094 C15.165,26.55 15.534,26.919 15.988,26.919 L22.583,26.919 C23.038,26.919 23.408,26.55 23.408,26.094 L23.408,13.729 L25.88,13.729 C26.228,13.729 26.54,13.511 26.657,13.183 C26.774,12.853 26.673,12.489 26.405,12.268 L12.391,0.727 C12.238,0.602 12.052,0.539 11.866,0.539 C11.68,0.539 11.494,0.602 11.342,0.727 Z" id="path-3"></path>
        <path d="M0.243,14.631 C0.243,6.727 6.531,0.295 14.258,0.295 C21.985,0.295 28.272,6.727 28.272,14.631 C28.272,19.214 26.144,23.482 22.551,26.185 L23.27,28.023 C23.369,28.277 23.335,28.564 23.181,28.787 C23.028,29.015 22.774,29.148 22.501,29.148 L20.029,29.148 L20.029,44.811 C20.029,45.054 19.919,45.287 19.732,45.445 L14.785,49.567 C14.634,49.692 14.445,49.756 14.258,49.756 C14.07,49.756 13.882,49.692 13.73,49.567 L8.784,45.445 C8.596,45.287 8.487,45.054 8.487,44.811 L8.487,42.337 C8.487,42.125 8.569,41.92 8.716,41.765 L9.868,40.566 L8.665,39.05 C8.428,38.75 8.428,38.326 8.665,38.027 L9.908,36.459 L8.665,34.892 C8.428,34.594 8.428,34.168 8.665,33.867 L9.93,32.273 L8.639,30.448 C8.54,30.311 8.487,30.144 8.487,29.972 L8.487,29.148 L6.014,29.148 C5.742,29.148 5.486,29.015 5.333,28.787 C5.18,28.564 5.146,28.277 5.246,28.023 L5.965,26.185 C2.37,23.482 0.243,19.214 0.243,14.631 Z M10.136,7.714 C10.136,9.987 11.985,11.836 14.258,11.836 C16.529,11.836 18.379,9.987 18.379,7.714 C18.379,5.443 16.529,3.592 14.258,3.592 C11.985,3.592 10.136,5.443 10.136,7.714 Z" id="path-5"></path>
    </defs>
    <g id="Page-1" stroke="none" stroke-width="1" fill="none" fill-rule="evenodd">
        <g id="Skilsmässaonline---Inloggad---Bodelningsverktyg-1-Copy-8" transform="translate(-569.000000, -223.000000)">
            <g id="Page-1" transform="translate(561.000000, 214.000000)">
                <g id="Group-24" transform="translate(0.000000, 0.948300)">
                    <path d="M73.6339,30.2574 L73.6339,39.5004 L78.6729,39.5004 C82.6379,39.5004 84.6199,37.8894 84.6199,34.6664 C84.6199,31.7274 82.5299,30.2574 78.3509,30.2574 L73.6339,30.2574 Z M73.6339,28.9394 L78.3509,28.9394 C80.3629,28.9394 81.8239,28.6044 82.7379,27.9354 C83.6509,27.2664 84.1079,26.2194 84.1079,24.7934 C84.1079,23.3674 83.5919,22.3324 82.5629,21.6884 C81.5309,21.0434 79.9959,20.7214 77.9549,20.7214 L73.6339,20.7214 L73.6339,28.9394 Z M72.1399,19.4034 L78.0139,19.4034 C80.6599,19.4034 82.6039,19.8524 83.8439,20.7504 C85.0839,21.6494 85.7039,23.0064 85.7039,24.8224 C85.7039,26.0634 85.3249,27.0954 84.5689,27.9214 C83.8119,28.7464 82.7059,29.2764 81.2509,29.5104 L81.2509,29.5984 C82.9599,29.8524 84.2169,30.3914 85.0239,31.2164 C85.8279,32.0424 86.2319,33.1924 86.2319,34.6664 C86.2319,36.6394 85.5769,38.1574 84.2689,39.2224 C82.9599,40.2864 81.1049,40.8194 78.7019,40.8194 L72.1399,40.8194 L72.1399,19.4034 Z" id="Fill-1" fill="#323D47"></path>
                    <path d="M90.3273,32.8356 C90.3273,35.0236 90.8073,36.7296 91.7693,37.9556 C92.7313,39.1806 94.0923,39.7936 95.8493,39.7936 C97.6073,39.7936 98.9673,39.1806 99.9303,37.9556 C100.8903,36.7296 101.3723,35.0236 101.3723,32.8356 C101.3723,30.6386 100.8863,28.9346 99.9143,27.7236 C98.9423,26.5126 97.5783,25.9066 95.8203,25.9066 C94.0623,25.9066 92.7073,26.5096 91.7563,27.7156 C90.8033,28.9216 90.3273,30.6286 90.3273,32.8356 M102.8953,32.8356 C102.8953,35.4336 102.2653,37.4616 101.0063,38.9216 C99.7463,40.3816 98.0083,41.1116 95.7913,41.1116 C94.3943,41.1116 93.1643,40.7746 92.0993,40.1016 C91.0353,39.4276 90.2203,38.4606 89.6533,37.2006 C89.0873,35.9406 88.8043,34.4856 88.8043,32.8356 C88.8043,30.2376 89.4333,28.2136 90.6933,26.7636 C91.9533,25.3136 93.6813,24.5886 95.8793,24.5886 C98.0663,24.5886 99.7833,25.3236 101.0273,26.7936 C102.2733,28.2626 102.8953,30.2766 102.8953,32.8356" id="Fill-3" fill="#323D47"></path>
                    <path d="M112.2442,25.9068 C110.5062,25.9068 109.1992,26.5168 108.3262,27.7378 C107.4512,28.9588 107.0152,30.7308 107.0152,33.0548 C107.0152,37.5668 108.7672,39.8228 112.2732,39.8228 C114.0702,39.8228 115.3892,39.3008 116.2282,38.2558 C117.0682,37.2108 117.4882,35.4868 117.4882,33.0848 L117.4882,32.8358 C117.4882,30.3748 117.0752,28.6048 116.2502,27.5258 C115.4252,26.4468 114.0902,25.9068 112.2442,25.9068 M112.2442,24.5888 C113.3962,24.5888 114.3922,24.7988 115.2322,25.2188 C116.0722,25.6378 116.8242,26.3558 117.4882,27.3718 L117.5762,27.3718 C117.5172,26.1408 117.4882,24.9348 117.4882,23.7538 L117.4882,18.0258 L118.9242,18.0258 L118.9242,40.8188 L117.9722,40.8188 L117.6052,38.3868 L117.4882,38.3868 C116.2772,40.2038 114.5392,41.1118 112.2732,41.1118 C110.0762,41.1118 108.3962,40.4278 107.2342,39.0608 C106.0722,37.6938 105.4912,35.7018 105.4912,33.0848 C105.4912,30.3308 106.0672,28.2258 107.2202,26.7708 C108.3722,25.3158 110.0472,24.5888 112.2442,24.5888" id="Fill-5" fill="#323D47"></path>
                    <path d="M129.173,25.8775 C127.64,25.8775 126.409,26.3825 125.482,27.3935 C124.554,28.4045 124.012,29.8615 123.856,31.7665 L133.699,31.7665 C133.699,29.9205 133.299,28.4775 132.498,27.4375 C131.697,26.3975 130.589,25.8775 129.173,25.8775 M129.598,41.1115 C127.283,41.1115 125.479,40.3985 124.185,38.9735 C122.891,37.5475 122.244,35.5505 122.244,32.9815 C122.244,30.4425 122.869,28.4095 124.119,26.8805 C125.369,25.3525 127.054,24.5885 129.173,24.5885 C131.048,24.5885 132.527,25.2425 133.611,26.5515 C134.695,27.8595 135.237,29.6375 135.237,31.8835 L135.237,33.0555 L123.768,33.0555 C123.787,35.2425 124.297,36.9125 125.298,38.0655 C126.299,39.2175 127.733,39.7935 129.598,39.7935 C130.506,39.7935 131.304,39.7305 131.993,39.6035 C132.681,39.4765 133.553,39.2025 134.608,38.7825 L134.608,40.1015 C133.709,40.4915 132.879,40.7575 132.117,40.8995 C131.356,41.0415 130.516,41.1115 129.598,41.1115" id="Fill-7" fill="#323D47"></path>
                    <mask id="mask-2" fill="white">
                        <use xlink:href="#path-1"></use>
                    </mask>
                    <g id="Clip-10"></g>
                    <polygon id="Fill-9" fill="#323D47" mask="url(#mask-2)" points="138.5 40.819 139.95 40.819 139.95 18.026 138.5 18.026"></polygon>
                    <path d="M155.1866,40.819 L155.1866,30.492 C155.1866,28.89 154.8496,27.726 154.1756,26.998 C153.5016,26.271 152.4576,25.907 151.0406,25.907 C149.1366,25.907 147.7426,26.388 146.8586,27.35 C145.9746,28.312 145.5336,29.872 145.5336,32.03 L145.5336,40.819 L144.0826,40.819 L144.0826,24.896 L145.3136,24.896 L145.5916,27.079 L145.6796,27.079 C146.7146,25.419 148.5556,24.589 151.2026,24.589 C154.8156,24.589 156.6226,26.527 156.6226,30.404 L156.6226,40.819 L155.1866,40.819 Z" id="Fill-11" fill="#323D47" mask="url(#mask-2)"></path>
                    <path d="M160.596,40.819 L162.046,40.819 L162.046,24.896 L160.596,24.896 L160.596,40.819 Z M160.391,20.472 C160.391,19.535 160.698,19.066 161.314,19.066 C161.616,19.066 161.853,19.188 162.024,19.432 C162.194,19.676 162.28,20.023 162.28,20.472 C162.28,20.912 162.194,21.258 162.024,21.512 C161.853,21.766 161.616,21.893 161.314,21.893 C160.698,21.893 160.391,21.42 160.391,20.472 Z" id="Fill-12" fill="#323D47" mask="url(#mask-2)"></path>
                    <path d="M177.3058,40.819 L177.3058,30.492 C177.3058,28.89 176.9688,27.726 176.2948,26.998 C175.6208,26.271 174.5768,25.907 173.1598,25.907 C171.2558,25.907 169.8618,26.388 168.9778,27.35 C168.0938,28.312 167.6528,29.872 167.6528,32.03 L167.6528,40.819 L166.2018,40.819 L166.2018,24.896 L167.4328,24.896 L167.7108,27.079 L167.7988,27.079 C168.8338,25.419 170.6748,24.589 173.3218,24.589 C176.9348,24.589 178.7418,26.527 178.7418,30.404 L178.7418,40.819 L177.3058,40.819 Z" id="Fill-13" fill="#323D47" mask="url(#mask-2)"></path>
                    <path d="M183.4327,29.8619 C183.4327,31.0919 183.8067,32.0469 184.5527,32.7259 C185.3007,33.4039 186.2987,33.7439 187.5487,33.7439 C188.8767,33.7439 189.8947,33.4069 190.6037,32.7329 C191.3107,32.0589 191.6647,31.0829 191.6647,29.8029 C191.6647,28.4459 191.3007,27.4279 190.5747,26.7489 C189.8457,26.0699 188.8287,25.7309 187.5197,25.7309 C186.2497,25.7309 185.2507,26.0949 184.5237,26.8219 C183.7957,27.5499 183.4327,28.5629 183.4327,29.8619 Z M182.2167,43.5139 C182.2167,45.7019 183.8427,46.7959 187.0947,46.7959 C191.2747,46.7959 193.3647,45.4629 193.3647,42.7969 C193.3647,41.8399 193.0367,41.1459 192.3827,40.7159 C191.7287,40.2869 190.6687,40.0719 189.2037,40.0719 L186.5967,40.0719 C183.6767,40.0719 182.2167,41.2189 182.2167,43.5139 Z M195.1077,24.8959 L195.1077,25.9069 L191.8117,26.1119 C192.6907,27.2059 193.1297,28.4069 193.1297,29.7159 C193.1297,31.2489 192.6197,32.4909 191.5997,33.4439 C190.5787,34.3959 189.2087,34.8719 187.4907,34.8719 C186.7677,34.8719 186.2597,34.8419 185.9667,34.7839 C185.3907,35.0869 184.9517,35.4429 184.6487,35.8529 C184.3457,36.2629 184.1947,36.6979 184.1947,37.1569 C184.1947,37.6649 184.3867,38.0359 184.7737,38.2699 C185.1587,38.5049 185.8057,38.6219 186.7137,38.6219 L189.4967,38.6219 C191.2257,38.6219 192.5487,38.9709 193.4667,39.6689 C194.3847,40.3669 194.8437,41.3999 194.8437,42.7669 C194.8437,44.4469 194.1617,45.7429 192.8007,46.6559 C191.4377,47.5699 189.4967,48.0259 186.9777,48.0259 C184.9757,48.0259 183.4257,47.6399 182.3267,46.8689 C181.2287,46.0969 180.6787,45.0229 180.6787,43.6459 C180.6787,42.5519 181.0177,41.6439 181.6977,40.9219 C182.3747,40.1989 183.2957,39.7059 184.4577,39.4419 C183.9797,39.2369 183.5957,38.9459 183.3087,38.5699 C183.0197,38.1949 182.8757,37.7619 182.8757,37.2739 C182.8757,36.2099 183.5547,35.2719 184.9117,34.4619 C183.9847,34.0809 183.2617,33.4829 182.7447,32.6669 C182.2267,31.8519 181.9677,30.9169 181.9677,29.8619 C181.9677,28.2699 182.4727,26.9929 183.4847,26.0309 C184.4947,25.0699 185.8597,24.5889 187.5787,24.5889 C188.6227,24.5889 189.4337,24.6909 190.0097,24.8959 L195.1077,24.8959 Z" id="Fill-14" fill="#323D47" mask="url(#mask-2)"></path>
                    <path d="M207.7286,36.6734 C207.7286,38.0994 207.1866,39.1954 206.1026,39.9624 C205.0186,40.7284 203.4806,41.1114 201.4886,41.1114 C199.3596,41.1114 197.6696,40.7844 196.4196,40.1304 L196.4196,38.5634 C198.0216,39.3634 199.7106,39.7644 201.4886,39.7644 C203.0606,39.7644 204.2536,39.5034 205.0706,38.9804 C205.8846,38.4584 206.2926,37.7624 206.2926,36.8934 C206.2926,36.0924 205.9676,35.4184 205.3186,34.8714 C204.6686,34.3244 203.6026,33.7874 202.1186,33.2604 C200.5266,32.6844 199.4086,32.1884 198.7636,31.7734 C198.1196,31.3584 197.6326,30.8894 197.3066,30.3674 C196.9786,29.8444 196.8156,29.2074 196.8156,28.4554 C196.8156,27.2644 197.3156,26.3214 198.3166,25.6284 C199.3176,24.9354 200.7166,24.5884 202.5136,24.5884 C204.2326,24.5884 205.8636,24.9104 207.4066,25.5554 L206.8646,26.8734 C205.3016,26.2294 203.8516,25.9064 202.5136,25.9064 C201.2146,25.9064 200.1846,26.1214 199.4226,26.5514 C198.6616,26.9814 198.2806,27.5764 198.2806,28.3384 C198.2806,29.1684 198.5756,29.8324 199.1656,30.3304 C199.7566,30.8284 200.9126,31.3854 202.6306,32.0004 C204.0666,32.5184 205.1116,32.9844 205.7656,33.3994 C206.4196,33.8144 206.9106,34.2854 207.2386,34.8134 C207.5646,35.3404 207.7286,35.9604 207.7286,36.6734" id="Fill-15" fill="#323D47" mask="url(#mask-2)"></path>
                    <path d="M215.2091,40.819 L208.9691,24.442 L213.6421,24.442 L216.8061,33.773 C217.1571,34.955 217.3771,36.073 217.4651,37.128 L217.5531,37.128 C217.6021,36.19 217.8211,35.072 218.2121,33.773 L221.3611,24.442 L226.0341,24.442 L219.7941,40.819 L215.2091,40.819 Z" id="Fill-16" fill="#323D47" mask="url(#mask-2)"></path>
                    <path d="M233.8644,27.3131 C232.9174,27.3131 232.1754,27.6131 231.6374,28.2141 C231.1004,28.8141 230.7934,29.6671 230.7154,30.7701 L236.9844,30.7701 C236.9654,29.6671 236.6774,28.8141 236.1204,28.2141 C235.5634,27.6131 234.8114,27.3131 233.8644,27.3131 M234.4944,41.1121 C231.8574,41.1121 229.7974,40.3841 228.3124,38.9291 C226.8284,37.4741 226.0864,35.4141 226.0864,32.7481 C226.0864,30.0031 226.7714,27.8821 228.1444,26.3831 C229.5154,24.8841 231.4134,24.1341 233.8354,24.1341 C236.1494,24.1341 237.9514,24.7931 239.2404,26.1121 C240.5294,27.4301 241.1744,29.2511 241.1744,31.5761 L241.1744,33.7441 L230.6124,33.7441 C230.6614,35.0131 231.0374,36.0041 231.7404,36.7171 C232.4434,37.4301 233.4294,37.7871 234.6994,37.7871 C235.6854,37.7871 236.6184,37.6841 237.4974,37.4791 C238.3764,37.2741 239.2944,36.9471 240.2514,36.4981 L240.2514,39.9551 C239.4694,40.3451 238.6354,40.6361 237.7464,40.8261 C236.8574,41.0171 235.7734,41.1121 234.4944,41.1121" id="Fill-17" fill="#323D47" mask="url(#mask-2)"></path>
                    <path d="M253.0655,24.1344 C253.6705,24.1344 254.1735,24.1784 254.5745,24.2664 L254.2375,28.4554 C253.8765,28.3584 253.4365,28.3094 252.9195,28.3094 C251.4935,28.3094 250.3815,28.6754 249.5865,29.4074 C248.7905,30.1404 248.3925,31.1654 248.3925,32.4844 L248.3925,40.8194 L243.9245,40.8194 L243.9245,24.4424 L247.3085,24.4424 L247.9675,27.1964 L248.1875,27.1964 C248.6955,26.2784 249.3815,25.5384 250.2455,24.9764 C251.1105,24.4154 252.0495,24.1344 253.0655,24.1344" id="Fill-18" fill="#323D47" mask="url(#mask-2)"></path>
                    <polygon id="Fill-19" fill="#323D47" mask="url(#mask-2)" points="260.753 31.9127 262.701 29.4227 267.286 24.4417 272.325 24.4417 265.821 31.5467 272.721 40.8187 267.565 40.8187 262.848 34.1837 260.929 35.7217 260.929 40.8187 256.461 40.8187 256.461 18.0257 260.929 18.0257 260.929 28.1917 260.694 31.9127"></polygon>
                    <path d="M281.4181,37.5524 C282.1991,37.5524 283.1371,37.3814 284.2311,37.0394 L284.2311,40.3654 C283.1171,40.8634 281.7501,41.1124 280.1291,41.1124 C278.3421,41.1124 277.0401,40.6604 276.2261,39.7574 C275.4091,38.8534 275.0021,37.4984 275.0021,35.6924 L275.0021,27.7964 L272.8631,27.7964 L272.8631,25.9064 L275.3241,24.4124 L276.6131,20.9554 L279.4701,20.9554 L279.4701,24.4424 L284.0551,24.4424 L284.0551,27.7964 L279.4701,27.7964 L279.4701,35.6924 C279.4701,36.3264 279.6471,36.7954 280.0051,37.0984 C280.3601,37.4014 280.8321,37.5524 281.4181,37.5524" id="Fill-20" fill="#323D47" mask="url(#mask-2)"></path>
                    <path d="M285.0392,24.442 L289.9322,24.442 L293.0222,33.656 C293.2862,34.457 293.4672,35.404 293.5642,36.498 L293.6522,36.498 C293.7602,35.492 293.9702,34.545 294.2822,33.656 L297.3142,24.442 L302.1042,24.442 L295.1762,42.914 C294.5412,44.623 293.6352,45.902 292.4592,46.752 C291.2812,47.601 289.9072,48.026 288.3352,48.026 C287.5632,48.026 286.8072,47.943 286.0642,47.777 L286.0642,44.232 C286.6012,44.359 287.1872,44.422 287.8222,44.422 C288.6132,44.422 289.3042,44.181 289.8942,43.697 C290.4852,43.214 290.9472,42.484 291.2792,41.507 L291.5432,40.702 L285.0392,24.442 Z" id="Fill-21" fill="#323D47" mask="url(#mask-2)"></path>
                    <path d="M306.7735,29.8033 C306.7735,30.6923 306.9755,31.3953 307.3815,31.9123 C307.7865,32.4303 308.4045,32.6893 309.2345,32.6893 C310.0745,32.6893 310.6895,32.4303 311.0805,31.9123 C311.4705,31.3953 311.6665,30.6923 311.6665,29.8033 C311.6665,27.8303 310.8555,26.8443 309.2345,26.8443 C307.5935,26.8443 306.7735,27.8303 306.7735,29.8033 Z M305.1475,43.1333 C305.1475,43.7483 305.4425,44.2323 306.0345,44.5833 C306.6245,44.9353 307.4525,45.1113 308.5165,45.1113 C310.1185,45.1113 311.3735,44.8913 312.2815,44.4513 C313.1895,44.0123 313.6435,43.4113 313.6435,42.6503 C313.6435,42.0343 313.3755,41.6103 312.8375,41.3753 C312.3005,41.1413 311.4705,41.0243 310.3475,41.0243 L308.0335,41.0243 C307.2125,41.0243 306.5265,41.2173 305.9755,41.6023 C305.4225,41.9883 305.1475,42.4983 305.1475,43.1333 Z M317.7895,24.4423 L317.7895,26.7123 L315.2255,27.3713 C315.6945,28.1043 315.9285,28.9243 315.9285,29.8323 C315.9285,31.5903 315.3155,32.9603 314.0905,33.9413 C312.8645,34.9233 311.1635,35.4133 308.9855,35.4133 L308.1795,35.3693 L307.5205,35.2963 C307.0615,35.6483 306.8325,36.0383 306.8325,36.4683 C306.8325,37.1133 307.6525,37.4353 309.2935,37.4353 L312.0765,37.4353 C313.8735,37.4353 315.2425,37.8213 316.1845,38.5923 C317.1275,39.3643 317.5985,40.4963 317.5985,41.9913 C317.5985,43.9053 316.7995,45.3893 315.2045,46.4443 C313.6065,47.4983 311.3145,48.0263 308.3265,48.0263 C306.0415,48.0263 304.2945,47.6283 303.0885,46.8323 C301.8825,46.0363 301.2805,44.9203 301.2805,43.4853 C301.2805,42.4983 301.5875,41.6733 302.2035,41.0093 C302.8185,40.3453 303.7215,39.8713 304.9135,39.5883 C304.4545,39.3933 304.0535,39.0733 303.7115,38.6293 C303.3705,38.1843 303.1995,37.7133 303.1995,37.2153 C303.1995,36.5903 303.3795,36.0703 303.7415,35.6553 C304.1025,35.2403 304.6255,34.8323 305.3085,34.4323 C304.4495,34.0613 303.7675,33.4653 303.2645,32.6453 C302.7615,31.8243 302.5105,30.8583 302.5105,29.7443 C302.5105,27.9573 303.0915,26.5753 304.2535,25.5993 C305.4165,24.6223 307.0765,24.1343 309.2345,24.1343 C309.6935,24.1343 310.2375,24.1763 310.8685,24.2593 C311.4975,24.3423 311.9005,24.4033 312.0765,24.4423 L317.7895,24.4423 Z" id="Fill-22" fill="#323D47" mask="url(#mask-2)"></path>
                    <path d="M57.4044,28.2682 L43.3904,16.7272 C43.0854,16.4762 42.6464,16.4762 42.3414,16.7272 L38.1244,20.2012 C37.9104,20.3772 37.8004,20.6482 37.8284,20.9232 C37.8864,21.4852 37.9204,22.0542 37.9204,22.6312 C37.9204,27.0562 36.1014,31.3202 32.9274,34.3292 C32.6854,34.5602 32.6044,34.9152 32.7284,35.2292 L32.8034,35.4222 C33.1024,36.1842 33.0054,37.0412 32.5444,37.7172 C32.3454,38.0092 32.0734,38.2562 31.7354,38.4512 C31.4814,38.5992 31.3254,38.8692 31.3254,39.1632 L31.3254,42.0942 C31.3254,42.5492 31.6944,42.9182 32.1494,42.9182 L38.7444,42.9182 C39.1994,42.9182 39.5684,42.5492 39.5684,42.0942 L39.5684,31.3772 L46.1644,31.3772 L46.1644,42.0942 C46.1644,42.5492 46.5334,42.9182 46.9884,42.9182 L53.5834,42.9182 C54.0384,42.9182 54.4074,42.5492 54.4074,42.0942 L54.4074,29.7292 L56.8804,29.7292 C57.2284,29.7292 57.5404,29.5112 57.6564,29.1832 C57.7734,28.8532 57.6734,28.4892 57.4044,28.2682" id="Fill-23" fill="#323D47" mask="url(#mask-2)"></path>
                </g>
                <g id="Group-27" transform="translate(31.000000, 16.948300)">
                    <mask id="mask-4" fill="white">
                        <use xlink:href="#path-3"></use>
                    </mask>
                    <g id="Clip-26"></g>
                </g>
                <path d="M22.2579,20.7843 C19.9859,20.7843 18.1359,18.9343 18.1359,16.6623 C18.1359,14.3903 19.9859,12.5403 22.2579,12.5403 C24.5289,12.5403 26.3789,14.3903 26.3789,16.6623 C26.3789,18.9343 24.5289,20.7843 22.2579,20.7843 Z M30.5509,35.1333 C34.1449,32.4303 36.2719,28.1623 36.2719,23.5783 C36.2719,15.6753 29.9859,9.2433 22.2579,9.2433 C14.5299,9.2433 8.2429,15.6753 8.2429,23.5783 C8.2429,28.1623 10.3699,32.4303 13.9649,35.1333 L13.2459,36.9713 C13.1469,37.2253 13.1799,37.5123 13.3329,37.7353 C13.4869,37.9623 13.7419,38.0963 14.0139,38.0963 L16.4869,38.0963 L16.4869,38.9203 C16.4869,39.0923 16.5399,39.2583 16.6389,39.3963 L17.9299,41.2213 L16.6649,42.8163 C16.4279,43.1163 16.4279,43.5413 16.6649,43.8403 L17.9079,45.4083 L16.6649,46.9753 C16.4279,47.2743 16.4279,47.6983 16.6649,47.9983 L17.8669,49.5143 L16.7159,50.7133 C16.5699,50.8683 16.4869,51.0733 16.4869,51.2853 L16.4869,53.7583 C16.4869,54.0023 16.5959,54.2353 16.7839,54.3933 L21.7299,58.5153 C21.8819,58.6403 22.0699,58.7043 22.2579,58.7043 C22.4449,58.7043 22.6339,58.6403 22.7849,58.5153 L27.7319,54.3933 C27.9189,54.2353 28.0289,54.0023 28.0289,53.7583 L28.0289,38.0963 L30.5009,38.0963 C30.7739,38.0963 31.0289,37.9623 31.1819,37.7353 C31.3349,37.5123 31.3679,37.2253 31.2699,36.9713 L30.5509,35.1333 Z" id="Fill-28" fill="#2D333D"></path>
                <g id="Group-32" transform="translate(8.000000, 8.948300)">
                    <mask id="mask-6" fill="white">
                        <use xlink:href="#path-5"></use>
                    </mask>
                    <g id="Clip-31"></g>
                </g>
            </g>
        </g>
    </g>
</svg>