<?xml version="1.0" encoding="UTF-8"?>
<svg width="15px" height="18px" viewBox="0 0 15 18" version="1.1" xmlns="http://www.w3.org/2000/svg" xmlns:xlink="http://www.w3.org/1999/xlink">
    <!-- Generator: Sketch 52.6 (67491) - http://www.bohemiancoding.com/sketch -->
    <title>Page 1</title>
    <desc>Created with Sketch.</desc>
    <g id="Page-1" stroke="none" stroke-width="1" fill="none" fill-rule="evenodd">
        <g id="Skilsmässaonline---Inloggad---Bodelningsverktyg-1-Copy-9" transform="translate(-1141.000000, -588.000000)" fill="#FFFFFF">
            <g id="Group-8-Copy-2" transform="translate(1134.000000, 584.000000)">
                <g id="Group-2">
                    <g id="Page-1" transform="translate(7.000000, 4.000000)">
                        <polygon id="Fill-1" points="4.95825 14.58326 6.0105 14.58326 6.0105 6.05454 4.95825 6.05454"></polygon>
                        <polygon id="Fill-2" points="7.06275 14.58326 8.11425 14.58326 8.11425 6.05454 7.06275 6.05454"></polygon>
                        <polygon id="Fill-3" points="9.1665 14.58326 10.218 14.58326 10.218 6.05454 9.1665 6.05454"></polygon>
                        <g id="Group-6" transform="translate(0.000000, 0.301340)">
                            <path d="M11.340375,15.845088 C11.340375,16.129328 11.059875,16.413568 10.744125,16.413568 L4.432125,16.413568 C4.151625,16.413568 3.871125,16.165048 3.835875,15.845088 L2.897625,3.621248 L12.278625,3.621248 L11.340375,15.845088 Z M5.974875,2.022208 C5.974875,1.702248 6.220125,1.453728 6.535875,1.453728 L8.639625,1.453728 C8.955375,1.453728 9.200625,1.702248 9.200625,2.022208 L9.200625,2.554968 L5.974875,2.554968 L5.974875,2.022208 Z M14.425875,2.554968 L10.183125,2.554968 L10.183125,2.022208 C10.183125,1.169488 9.481125,0.458128 8.639625,0.458128 L6.535875,0.458128 C5.694375,0.458128 4.993125,1.169488 4.993125,2.022208 L4.993125,2.554968 L0.749625,2.554968 L0.749625,3.621248 L1.840125,3.621248 L2.783625,15.916528 C2.854125,16.769248 3.590625,17.479848 4.432125,17.479848 L10.744125,17.479848 C11.585625,17.479848 12.322875,16.804968 12.391875,15.916528 L13.336125,3.621248 L14.425875,3.621248 L14.425875,2.554968 Z" id="Fill-4"></path>
                        </g>
                    </g>
                </g>
            </g>
        </g>
    </g>
</svg>